<svg width="30" height="30" viewBox="0 0 30 30" fill="none" xmlns="http://www.w3.org/2000/svg">
<ellipse cx="15" cy="15" rx="15" ry="15" fill="#B8A4FC"/>
<ellipse cx="15" cy="15" rx="15" ry="15" fill="url(#paint0_radial_7623_4681)"/>
<mask id="mask0_7623_4681" style="mask-type:alpha" maskUnits="userSpaceOnUse" x="0" y="0" width="30" height="30">
<ellipse cx="15" cy="15" rx="15" ry="15" fill="#C4C4C4"/>
</mask>
<g mask="url(#mask0_7623_4681)">
<path d="M22.6926 24.0435L18.5753 22.8325C18.0766 22.6859 17.7341 22.2281 17.7341 21.7082V19.8506H12.265V21.7082C12.265 22.2281 11.9225 22.6858 11.4238 22.8325L7.30656 24.0435C6.30907 24.3369 5.62402 25.2523 5.62402 26.2921V29.2261C5.62402 29.8733 6.14872 30.398 6.79597 30.398H23.2031C23.8504 30.398 24.3751 29.8733 24.3751 29.2261V26.2921C24.3751 25.2523 23.6901 24.3369 22.6926 24.0435Z" fill="#E3AA75"/>
<path d="M22.6926 24.0436L18.5753 22.8327C18.5057 22.8122 18.44 22.7844 18.377 22.7524L14.9994 23.3665L11.6221 22.7524C11.5591 22.7844 11.4934 22.8122 11.4238 22.8327L7.30656 24.0436C6.30902 24.337 5.62402 25.2525 5.62402 26.2923V29.2263C5.62402 29.8735 6.14872 30.3982 6.79597 30.3982H23.2031C23.8504 30.3982 24.3751 29.8735 24.3751 29.2262V26.2922C24.3751 25.2525 23.6901 24.337 22.6926 24.0436Z" fill="url(#paint1_linear_7623_4681)"/>
<path d="M10.3794 23.7279L12.315 25.387C12.598 25.6296 12.959 25.7632 13.3314 25.7632C13.809 25.7632 14.2539 25.5495 14.5521 25.1768L14.9997 24.6172L15.4473 25.1767C15.7454 25.5495 16.1903 25.7632 16.6679 25.7632C17.0404 25.7632 17.4013 25.6296 17.6844 25.387L19.62 23.7279C19.777 23.5933 19.885 23.4216 19.9456 23.2357L18.5755 22.8327C18.5059 22.8122 18.4401 22.7844 18.3771 22.7524L14.9995 23.3665L11.6222 22.7524C11.5592 22.7844 11.4935 22.8122 11.4239 22.8327L10.0537 23.2357C10.1143 23.4216 10.2224 23.5934 10.3794 23.7279Z" fill="url(#paint2_linear_7623_4681)"/>
<path d="M12.2651 20.7223C13.0858 21.1607 14.0166 21.4132 14.9997 21.4132C15.9828 21.4132 16.9135 21.1607 17.7342 20.7223V19.8506H12.2651V20.7223Z" fill="#D29B6E"/>
<path d="M20.2731 13.9909H20.0778V9.69373H9.92097V13.9908H9.72565C9.18628 13.9908 8.74902 14.4281 8.74902 14.9674C8.74902 15.5068 9.18628 15.9441 9.72565 15.9441H9.9407C10.1408 18.5656 12.3265 20.6318 14.9994 20.6318C17.6722 20.6318 19.8579 18.5656 20.058 15.9441H20.2731C20.8125 15.9441 21.2497 15.5068 21.2497 14.9674C21.2497 14.4281 20.8125 13.9909 20.2731 13.9909Z" fill="url(#paint3_linear_7623_4681)"/>
<path d="M18.5152 10.475V9.69373H9.92093V13.9908H9.78136C9.27049 13.9908 8.80498 14.3584 8.75408 14.8667C8.69552 15.4512 9.15302 15.944 9.72566 15.944H9.94071C10.1408 18.5656 12.3265 20.6318 14.9994 20.6318C15.2666 20.6318 15.5272 20.6057 15.7831 20.5659C13.3491 20.1903 11.4835 18.0925 11.4835 15.5533V12.8188C11.4835 11.9558 12.1831 11.2562 13.0461 11.2562H17.7339C18.1654 11.2563 18.5152 10.9066 18.5152 10.475Z" fill="url(#paint4_linear_7623_4681)"/>
<path d="M14.9994 23.366L11.8402 21.6109C11.6458 21.5029 11.4005 21.5787 11.301 21.7777L10.8113 22.7571C10.7472 22.8854 10.7786 23.0408 10.8875 23.1341L12.8231 24.7932C13.1586 25.0808 13.6656 25.0332 13.9416 24.6881L14.9994 23.366Z" fill="url(#paint5_linear_7623_4681)"/>
<path d="M14.9995 23.366L18.1587 21.6109C18.3531 21.5029 18.5983 21.5787 18.6978 21.7777L19.1875 22.7571C19.2517 22.8854 19.2203 23.0408 19.1114 23.1341L17.1758 24.7932C16.8403 25.0808 16.3332 25.0332 16.0572 24.6881L14.9995 23.366Z" fill="url(#paint6_linear_7623_4681)"/>
<path d="M12.6558 15.1962C12.4399 15.1962 12.2651 15.0213 12.2651 14.8056V14.4149C12.2651 14.1992 12.4399 14.0243 12.6558 14.0243C12.8717 14.0243 13.0464 14.1992 13.0464 14.4149V14.8056C13.0464 15.0214 12.8717 15.1962 12.6558 15.1962Z" fill="url(#paint7_radial_7623_4681)"/>
<path d="M17.3438 15.1962C17.1279 15.1962 16.9531 15.0213 16.9531 14.8056V14.4149C16.9531 14.1992 17.1279 14.0243 17.3438 14.0243C17.5597 14.0243 17.7344 14.1992 17.7344 14.4149V14.8056C17.7344 15.0214 17.5597 15.1962 17.3438 15.1962Z" fill="url(#paint8_radial_7623_4681)"/>
<path d="M13.0465 13.6H12.2652C12.0493 13.6 11.8745 13.4251 11.8745 13.2094C11.8745 12.9937 12.0493 12.8187 12.2652 12.8187H13.0465C13.2624 12.8187 13.4371 12.9937 13.4371 13.2094C13.4371 13.4251 13.2624 13.6 13.0465 13.6Z" fill="url(#paint9_linear_7623_4681)"/>
<path d="M17.7344 13.6H16.9532C16.7372 13.6 16.5625 13.4251 16.5625 13.2094C16.5625 12.9937 16.7372 12.8187 16.9532 12.8187H17.7344C17.9504 12.8187 18.1251 12.9937 18.1251 13.2094C18.1251 13.4251 17.9504 13.6 17.7344 13.6Z" fill="url(#paint10_linear_7623_4681)"/>
<path d="M13.4551 16.5627C13.3321 16.5627 13.2407 16.6752 13.2612 16.7964C13.3881 17.5486 14.118 18.1253 14.9996 18.1253C15.8811 18.1253 16.611 17.5486 16.7379 16.7964C16.7584 16.6752 16.667 16.5627 16.544 16.5627H13.4551Z" fill="white"/>
<path d="M14.9995 26.8819C15.2153 26.8819 15.3902 26.707 15.3902 26.4912C15.3902 26.2755 15.2153 26.1006 14.9995 26.1006C14.7838 26.1006 14.6089 26.2755 14.6089 26.4912C14.6089 26.707 14.7838 26.8819 14.9995 26.8819Z" fill="url(#paint11_radial_7623_4681)"/>
<path d="M14.9995 29.2258C15.2153 29.2258 15.3902 29.0509 15.3902 28.8351C15.3902 28.6194 15.2153 28.4445 14.9995 28.4445C14.7838 28.4445 14.6089 28.6194 14.6089 28.8351C14.6089 29.0509 14.7838 29.2258 14.9995 29.2258Z" fill="url(#paint12_radial_7623_4681)"/>
<path d="M19.3764 8.91199H10.6226C9.42981 8.91199 8.51556 9.97171 8.69045 11.1516L9.1398 14.1834L10.0169 14.0751C10.4083 14.0267 10.7024 13.6941 10.7024 13.2997V11.2558C10.7024 10.8243 11.0522 10.4745 11.4837 10.4745H18.5153C18.9468 10.4745 19.2966 10.8243 19.2966 11.2558V13.2996C19.2966 13.6941 19.5907 14.0267 19.9822 14.075L20.8592 14.1834L21.3086 11.1515C21.4834 9.97167 20.5692 8.91199 19.3764 8.91199Z" fill="url(#paint13_linear_7623_4681)"/>
<path d="M20.2611 6.27528C20.186 6.04265 19.9159 5.92971 19.7024 6.04879C19.2954 6.2759 18.5389 6.56867 17.3432 6.56867H13.4367C11.9265 6.56867 10.7021 7.79294 10.7021 9.30322C10.7021 9.95047 11.2268 10.4752 11.8741 10.4752H18.1244C19.5925 10.4752 21.0605 8.75132 20.2611 6.27528Z" fill="url(#paint14_linear_7623_4681)"/>
<path d="M9.13972 26.8821V30.3979H7.96777V28.054C7.96777 27.4068 8.49247 26.8821 9.13972 26.8821Z" fill="url(#paint15_linear_7623_4681)"/>
<path d="M20.8589 26.8821V30.3979H22.0308V28.054C22.0308 27.4068 21.5061 26.8821 20.8589 26.8821Z" fill="url(#paint16_linear_7623_4681)"/>
<path d="M9.13965 30.3981H10.7022V23.0447L9.13965 23.5043V30.3981Z" fill="url(#paint17_linear_7623_4681)"/>
<path d="M20.859 30.3979H19.2964V23.0446L20.859 23.5042V30.3979Z" fill="url(#paint18_linear_7623_4681)"/>
<path d="M9.13965 30.3979H9.92095V27.6634C9.92095 27.2319 9.57114 26.8821 9.13965 26.8821V30.3979Z" fill="#FFD164"/>
<path d="M20.8589 30.3979H20.0776V27.6634C20.0776 27.2319 20.4274 26.8821 20.8589 26.8821V30.3979Z" fill="#FFD164"/>
<path d="M13.028 7.93035C13.0339 8.48426 13.5245 8.91245 14.0784 8.91245H19.3766C19.6577 8.91245 19.9224 8.97307 20.1619 9.07852C20.5178 8.35617 20.6228 7.39336 20.261 6.27364C20.1862 6.04215 19.9162 5.92946 19.7038 6.04811C19.2971 6.27531 18.5403 6.56861 17.3435 6.56861H13.437C13.4126 6.58295 13.385 6.59915 13.3606 6.6135C13.1493 7.00133 13.0278 7.44502 13.0278 7.91777C13.0279 7.92192 13.0279 7.92611 13.028 7.93035Z" fill="url(#paint19_linear_7623_4681)"/>
</g>
<defs>
<radialGradient id="paint0_radial_7623_4681" cx="0" cy="0" r="1" gradientUnits="userSpaceOnUse" gradientTransform="translate(5.9375 3.4375) rotate(51.809) scale(29.8204 29.8204)">
<stop offset="0.492268" stop-color="#B8A4FC"/>
<stop offset="1" stop-color="#B859E4"/>
</radialGradient>
<linearGradient id="paint1_linear_7623_4681" x1="14.9996" y1="22.7524" x2="14.9996" y2="30.3982" gradientUnits="userSpaceOnUse">
<stop stop-color="#FF414F"/>
<stop offset="1" stop-color="#FF7456"/>
</linearGradient>
<linearGradient id="paint2_linear_7623_4681" x1="14.9997" y1="22.7524" x2="14.9997" y2="25.7632" gradientUnits="userSpaceOnUse">
<stop stop-color="#B33639"/>
<stop offset="1" stop-color="#E64549"/>
</linearGradient>
<linearGradient id="paint3_linear_7623_4681" x1="9.37489" y1="10.9378" x2="19.3749" y2="18.4378" gradientUnits="userSpaceOnUse">
<stop stop-color="#EDB379"/>
<stop offset="1" stop-color="#FFC182"/>
</linearGradient>
<linearGradient id="paint4_linear_7623_4681" x1="9.06235" y1="11.2503" x2="14.9999" y2="14.0628" gradientUnits="userSpaceOnUse">
<stop stop-color="#C58646"/>
<stop offset="1" stop-color="#C68748" stop-opacity="0.06"/>
</linearGradient>
<linearGradient id="paint5_linear_7623_4681" x1="12.8888" y1="21.5616" x2="12.8888" y2="24.9814" gradientUnits="userSpaceOnUse">
<stop stop-color="#FF414F"/>
<stop offset="1" stop-color="#FF7456"/>
</linearGradient>
<linearGradient id="paint6_linear_7623_4681" x1="17.11" y1="21.5616" x2="17.11" y2="24.9814" gradientUnits="userSpaceOnUse">
<stop stop-color="#FF414F"/>
<stop offset="1" stop-color="#FF7456"/>
</linearGradient>
<radialGradient id="paint7_radial_7623_4681" cx="0" cy="0" r="1" gradientUnits="userSpaceOnUse" gradientTransform="translate(12.5002 14.3748) rotate(71.5651) scale(0.988212 0.658807)">
<stop stop-color="#040404"/>
<stop offset="1" stop-color="#767676"/>
</radialGradient>
<radialGradient id="paint8_radial_7623_4681" cx="0" cy="0" r="1" gradientUnits="userSpaceOnUse" gradientTransform="translate(17.1882 14.3748) rotate(71.565) scale(0.988211 0.658807)">
<stop stop-color="#040404"/>
<stop offset="1" stop-color="#767676"/>
</radialGradient>
<linearGradient id="paint9_linear_7623_4681" x1="12.8127" y1="12.8126" x2="12.8127" y2="13.7501" gradientUnits="userSpaceOnUse">
<stop stop-color="#332A2E"/>
<stop offset="1" stop-color="#6E5A64"/>
</linearGradient>
<linearGradient id="paint10_linear_7623_4681" x1="17.5007" y1="12.8126" x2="17.5007" y2="13.7501" gradientUnits="userSpaceOnUse">
<stop stop-color="#332A2E"/>
<stop offset="1" stop-color="#6E5A64"/>
</linearGradient>
<radialGradient id="paint11_radial_7623_4681" cx="0" cy="0" r="1" gradientUnits="userSpaceOnUse" gradientTransform="translate(15.0001 25.9375) rotate(90.0312) scale(0.944414)">
<stop stop-color="#FFC350"/>
<stop offset="1" stop-color="#FFD179" stop-opacity="0.97"/>
</radialGradient>
<radialGradient id="paint12_radial_7623_4681" cx="0" cy="0" r="1" gradientUnits="userSpaceOnUse" gradientTransform="translate(15.0001 28.2813) rotate(90.0312) scale(0.944416 0.944415)">
<stop stop-color="#FFC350"/>
<stop offset="1" stop-color="#FFD179" stop-opacity="0.97"/>
</radialGradient>
<linearGradient id="paint13_linear_7623_4681" x1="14.9995" y1="8.91199" x2="14.9995" y2="14.1834" gradientUnits="userSpaceOnUse">
<stop stop-color="#362A30"/>
<stop offset="1" stop-color="#826574"/>
</linearGradient>
<linearGradient id="paint14_linear_7623_4681" x1="10.9374" y1="9.06284" x2="20.6249" y2="6.87533" gradientUnits="userSpaceOnUse">
<stop stop-color="#64505A"/>
<stop offset="1" stop-color="#78606C"/>
</linearGradient>
<linearGradient id="paint15_linear_7623_4681" x1="8.55375" y1="26.8821" x2="8.55375" y2="30.3979" gradientUnits="userSpaceOnUse">
<stop stop-color="#B33639"/>
<stop offset="1" stop-color="#E64549"/>
</linearGradient>
<linearGradient id="paint16_linear_7623_4681" x1="21.4449" y1="26.8821" x2="21.4449" y2="30.3979" gradientUnits="userSpaceOnUse">
<stop stop-color="#B33639"/>
<stop offset="1" stop-color="#E64549"/>
</linearGradient>
<linearGradient id="paint17_linear_7623_4681" x1="9.92095" y1="23.0447" x2="9.92095" y2="30.3981" gradientUnits="userSpaceOnUse">
<stop stop-color="#FFCA62"/>
<stop offset="1" stop-color="#FFCA62" stop-opacity="0.38"/>
</linearGradient>
<linearGradient id="paint18_linear_7623_4681" x1="20.0777" y1="23.0446" x2="20.0777" y2="30.3979" gradientUnits="userSpaceOnUse">
<stop stop-color="#FFCA62"/>
<stop offset="1" stop-color="#FFCA62" stop-opacity="0.38"/>
</linearGradient>
<linearGradient id="paint19_linear_7623_4681" x1="13.1252" y1="8.4378" x2="20.3127" y2="6.2503" gradientUnits="userSpaceOnUse">
<stop stop-color="#7A646F"/>
<stop offset="1" stop-color="#6E5A64"/>
</linearGradient>
</defs>
</svg>
