<svg width="30" height="30" viewBox="0 0 30 30" fill="none" xmlns="http://www.w3.org/2000/svg">
<ellipse cx="15" cy="14.9999" rx="15" ry="14.9999" fill="#FEC0B2"/>
<ellipse cx="15" cy="14.9999" rx="15" ry="14.9999" fill="url(#paint0_radial_7623_4771)"/>
<mask id="mask0_7623_4771" style="mask-type:alpha" maskUnits="userSpaceOnUse" x="0" y="0" width="30" height="30">
<ellipse cx="15" cy="14.9999" rx="15" ry="14.9999" fill="#C4C4C4"/>
</mask>
<g mask="url(#mask0_7623_4771)">
<path d="M25.2252 22.2343C25.2581 19.9657 24.5019 19.5712 24.1238 18.2397C23.7432 16.8991 24.1304 15.9838 23.6799 14.4999C23.2608 13.119 22.4992 12.8857 22.2662 10.9244C21.8716 7.60375 18.288 5.89417 16.5126 5.89417C16.0105 5.89417 15.6677 6.02158 15.4373 6.17398C15.1705 6.35047 14.8298 6.35047 14.5631 6.17398C14.3326 6.02158 13.9898 5.89417 13.4878 5.89417C11.7124 5.89417 8.12872 7.60375 7.73419 10.9244C7.50114 12.8857 6.73964 13.119 6.32046 14.4999C5.86999 15.9838 6.25725 16.8991 5.87663 18.2397C5.49853 19.5712 4.74234 19.9657 4.77521 22.2343C4.81333 24.8651 3.2957 25.4563 3.88749 27.1988C4.32918 28.4993 6.71499 29.566 6.71499 29.566H23.2854C23.2854 29.566 25.6712 28.4992 26.1129 27.1988C26.7047 25.4563 25.187 24.8651 25.2252 22.2343Z" fill="url(#paint1_linear_7623_4771)"/>
<path d="M15.0002 6.30632C14.8483 6.30632 14.6964 6.26223 14.5631 6.17398C14.3326 6.02158 13.9898 5.89417 13.4878 5.89417C11.7124 5.89417 8.12872 7.60375 7.73419 10.9244C7.50114 12.8857 6.73964 13.119 6.32046 14.4999C5.86999 15.9838 6.25725 16.8991 5.87663 18.2397C5.49853 19.5712 4.74234 19.9657 4.77521 22.2343C4.81333 24.8651 3.2957 25.4563 3.88749 27.1988C4.32918 28.4993 6.71499 29.566 6.71499 29.566H15.0002V6.30632Z" fill="url(#paint2_linear_7623_4771)"/>
<path d="M22.4951 25.0636L18.4203 23.6254C17.7893 23.4027 17.3674 22.8063 17.3674 22.1373V20.0975H12.633V22.1373C12.633 22.8063 12.211 23.4027 11.58 23.6254L7.50522 25.0636C6.55879 25.3976 5.9259 26.2922 5.9259 27.2958V29.1718C5.9259 29.8254 6.45583 30.3554 7.10949 30.3554H22.8909C23.5445 30.3554 24.0744 29.8254 24.0744 29.1718V27.2958C24.0744 26.2922 23.4416 25.3976 22.4951 25.0636Z" fill="url(#paint3_linear_7623_4771)"/>
<path d="M22.4951 25.0637L19.7762 24.104C18.7061 25.583 17.2499 27.214 15.5547 28.1177C15.2089 28.3021 14.7914 28.3021 14.4456 28.1177C12.7504 27.214 11.2942 25.583 10.2241 24.104L7.50522 25.0637C6.55879 25.3977 5.9259 26.2923 5.9259 27.2959V29.1719C5.9259 29.8255 6.45583 30.3554 7.10949 30.3554H22.8909C23.5445 30.3554 24.0744 29.8255 24.0744 29.1719V27.2959C24.0744 26.2923 23.4415 25.3977 22.4951 25.0637Z" fill="url(#paint4_linear_7623_4771)"/>
<path d="M12.633 21.1709C13.3614 21.493 14.1618 21.6757 15.0002 21.6757C15.8385 21.6757 16.6389 21.493 17.3673 21.1709V20.0975H12.6329L12.633 21.1709Z" fill="url(#paint5_linear_7623_4771)"/>
<path d="M15.0002 20.8863C12.1675 20.8863 9.87122 18.59 9.87122 15.7574V9.05042H20.1291V15.7574C20.1291 18.59 17.8328 20.8863 15.0002 20.8863Z" fill="url(#paint6_linear_7623_4771)"/>
<path d="M9.87122 9.05042V15.7574C9.87122 18.59 12.1675 20.8864 15.0002 20.8864C15.2692 20.8864 15.5313 20.8594 15.7892 20.8195C13.3322 20.439 11.4493 18.3211 11.4493 15.7574V13.7057C11.4493 13.3813 11.55 13.0679 11.7218 12.7927C11.7227 12.7913 11.7236 12.7898 11.7245 12.7884C12.3723 11.7488 12.9787 11.596 13.6807 11.4191C14.084 11.3175 14.5537 11.1991 15.0001 10.9017C15.4465 11.1991 15.9163 11.3175 16.3195 11.4191C17.0216 11.596 17.628 11.7488 18.2757 12.7883C18.8784 13.7553 19.5527 14.2898 20.129 14.7027V9.05042H9.87122Z" fill="url(#paint7_linear_7623_4771)"/>
<path d="M15.0002 18.5194C14.408 18.5194 13.862 18.3295 13.5395 18.0112C13.3842 17.8579 13.3827 17.6082 13.5356 17.4534C13.6894 17.2981 13.9391 17.2966 14.0935 17.4495C14.2249 17.579 14.5408 17.7304 15.0001 17.7304C15.4594 17.7304 15.7753 17.579 15.9067 17.4495C16.0612 17.2965 16.3109 17.2981 16.4646 17.4534C16.6176 17.6082 16.616 17.8579 16.4607 18.0112C16.1383 18.3295 15.5923 18.5194 15.0002 18.5194Z" fill="#A06E50"/>
<path d="M12.6329 15.7573C12.4148 15.7573 12.2384 15.5808 12.2384 15.3628V14.9683C12.2384 14.7502 12.4149 14.5737 12.6329 14.5737C12.851 14.5737 13.0275 14.7502 13.0275 14.9683V15.3628C13.0275 15.5808 12.851 15.7573 12.6329 15.7573Z" fill="url(#paint8_radial_7623_4771)"/>
<path d="M17.3673 15.7573C17.1492 15.7573 16.9728 15.5808 16.9728 15.3628V14.9683C16.9728 14.7502 17.1493 14.5737 17.3673 14.5737C17.5854 14.5737 17.7618 14.7502 17.7618 14.9683V15.3628C17.7618 15.5808 17.5854 15.7573 17.3673 15.7573Z" fill="url(#paint9_radial_7623_4771)"/>
<path d="M13.0275 14.1797H12.2384C12.0203 14.1797 11.8439 14.0032 11.8439 13.7852C11.8439 13.5671 12.0204 13.3906 12.2384 13.3906H13.0275C13.2456 13.3906 13.422 13.5671 13.422 13.7852C13.422 14.0032 13.2455 14.1797 13.0275 14.1797Z" fill="url(#paint10_linear_7623_4771)"/>
<path d="M17.7618 14.1797H16.9728C16.7547 14.1797 16.5782 14.0032 16.5782 13.7852C16.5782 13.5671 16.7547 13.3906 16.9728 13.3906H17.7618C17.9799 13.3906 18.1564 13.5671 18.1564 13.7852C18.1564 14.0032 17.9799 14.1797 17.7618 14.1797Z" fill="url(#paint11_linear_7623_4771)"/>
<path d="M8.81477 27.2121L6.80094 25.4635C6.59459 25.6317 6.42122 25.8332 6.28271 26.0581L8.2977 27.8078C8.55659 28.0328 8.70532 28.3587 8.70532 28.7017V30.3549H9.49438V28.7016C9.49443 28.1298 9.24671 27.587 8.81477 27.2121Z" fill="url(#paint12_linear_7623_4771)"/>
<path d="M21.2033 27.2122L23.2171 25.4636C23.4235 25.6318 23.5968 25.8333 23.7353 26.0582L21.7204 27.8079C21.4615 28.0329 21.3127 28.3589 21.3127 28.7018V30.355H20.5237V28.7017C20.5236 28.13 20.7713 27.5871 21.2033 27.2122Z" fill="url(#paint13_linear_7623_4771)"/>
<path d="M24.1237 18.2397C23.7431 16.8991 24.1304 15.9838 23.6799 14.4999C23.2607 13.119 22.4992 12.8857 22.2662 10.9244C21.8716 7.60376 18.2879 5.89417 16.5125 5.89417C16.0105 5.89417 15.6677 6.02158 15.4372 6.17398C15.3039 6.26223 15.152 6.30632 15.0001 6.30632V9.83949C16.0193 11.1217 17.5317 10.1025 18.9455 12.3711C20.1471 14.2993 21.656 14.2505 22.1868 15.7707C22.3389 16.2065 22.2564 16.672 22.2928 17.1321C22.4963 19.7027 24.4689 20.8864 25.3557 23.5691C25.2711 23.1859 25.2176 22.7503 25.2251 22.2343C25.258 19.9657 24.5018 19.5712 24.1237 18.2397Z" fill="url(#paint14_linear_7623_4771)"/>
<path d="M5.87659 18.2397C6.25722 16.8991 5.86995 15.9838 6.32043 14.4999C6.73961 13.119 7.50115 12.8857 7.73416 10.9244C8.12873 7.60376 11.7124 5.89417 13.4878 5.89417C13.9898 5.89417 14.3326 6.02158 14.5631 6.17398C14.6964 6.26223 14.8483 6.30632 15.0002 6.30632V9.83949C13.981 11.1217 12.4686 10.1025 11.0548 12.3711C9.85319 14.2993 8.3443 14.2505 7.81351 15.7707C7.66139 16.2065 7.7439 16.672 7.7075 17.1321C7.50407 19.7027 5.53142 20.8864 4.64465 23.5691C4.72922 23.1859 4.78268 22.7503 4.77518 22.2343C4.74231 19.9657 5.4985 19.5712 5.87659 18.2397Z" fill="url(#paint15_linear_7623_4771)"/>
</g>
<defs>
<radialGradient id="paint0_radial_7623_4771" cx="0" cy="0" r="1" gradientUnits="userSpaceOnUse" gradientTransform="translate(4.6875 4.68747) rotate(48.4681) scale(29.2216 29.2216)">
<stop offset="0.449021" stop-color="#FEC0B2"/>
<stop offset="1" stop-color="#FF866B"/>
</radialGradient>
<linearGradient id="paint1_linear_7623_4771" x1="15.0002" y1="5.89417" x2="15.0002" y2="29.566" gradientUnits="userSpaceOnUse">
<stop stop-color="#33282D"/>
<stop offset="1" stop-color="#6E5561"/>
</linearGradient>
<linearGradient id="paint2_linear_7623_4771" x1="9.37527" y1="5.89417" x2="9.37527" y2="29.566" gradientUnits="userSpaceOnUse">
<stop stop-color="#1A1417"/>
<stop offset="1" stop-color="#5A4650"/>
</linearGradient>
<linearGradient id="paint3_linear_7623_4771" x1="11.4356" y1="23.6345" x2="16.0214" y2="29.509" gradientUnits="userSpaceOnUse">
<stop stop-color="#D4A06C"/>
<stop offset="1" stop-color="#FABD80"/>
</linearGradient>
<linearGradient id="paint4_linear_7623_4771" x1="8.75" y1="24.6873" x2="20.9375" y2="29.3749" gradientUnits="userSpaceOnUse">
<stop stop-color="#ACED8E"/>
<stop offset="1" stop-color="#A6FFAA"/>
</linearGradient>
<linearGradient id="paint5_linear_7623_4771" x1="12.7848" y1="20.3221" x2="14.0011" y2="22.8069" gradientUnits="userSpaceOnUse">
<stop stop-color="#C58646"/>
<stop offset="1" stop-color="#C68748" stop-opacity="0.06"/>
</linearGradient>
<linearGradient id="paint6_linear_7623_4771" x1="10.3848" y1="10.3966" x2="20.0726" y2="15.9066" gradientUnits="userSpaceOnUse">
<stop stop-color="#EDB379"/>
<stop offset="1" stop-color="#FFC182"/>
</linearGradient>
<linearGradient id="paint7_linear_7623_4771" x1="10.2003" y1="10.7347" x2="16.5035" y2="13.6329" gradientUnits="userSpaceOnUse">
<stop stop-color="#C58646"/>
<stop offset="1" stop-color="#C68748" stop-opacity="0.06"/>
</linearGradient>
<radialGradient id="paint8_radial_7623_4771" cx="0" cy="0" r="1" gradientUnits="userSpaceOnUse" gradientTransform="translate(12.4758 14.9277) rotate(71.565) scale(0.998025 0.665353)">
<stop stop-color="#040404"/>
<stop offset="1" stop-color="#767676"/>
</radialGradient>
<radialGradient id="paint9_radial_7623_4771" cx="0" cy="0" r="1" gradientUnits="userSpaceOnUse" gradientTransform="translate(17.2102 14.9277) rotate(71.565) scale(0.998025 0.665353)">
<stop stop-color="#040404"/>
<stop offset="1" stop-color="#767676"/>
</radialGradient>
<linearGradient id="paint10_linear_7623_4771" x1="11.9468" y1="13.5935" x2="12.1072" y2="14.4125" gradientUnits="userSpaceOnUse">
<stop stop-color="#403239"/>
<stop offset="1" stop-color="#806371"/>
</linearGradient>
<linearGradient id="paint11_linear_7623_4771" x1="16.6811" y1="13.5935" x2="16.8415" y2="14.4125" gradientUnits="userSpaceOnUse">
<stop stop-color="#403239"/>
<stop offset="1" stop-color="#806371"/>
</linearGradient>
<linearGradient id="paint12_linear_7623_4771" x1="7.81252" y1="24.9995" x2="7.88855" y2="30.3549" gradientUnits="userSpaceOnUse">
<stop stop-color="#87BA70"/>
<stop offset="1" stop-color="#87BA70" stop-opacity="0"/>
</linearGradient>
<linearGradient id="paint13_linear_7623_4771" x1="22.1875" y1="24.9996" x2="22.1295" y2="30.355" gradientUnits="userSpaceOnUse">
<stop stop-color="#86C985"/>
<stop offset="1" stop-color="#86C985" stop-opacity="0"/>
</linearGradient>
<linearGradient id="paint14_linear_7623_4771" x1="15.9375" y1="6.24969" x2="24.9999" y2="23.1246" gradientUnits="userSpaceOnUse">
<stop stop-color="#5C4B53"/>
<stop offset="1" stop-color="#7A646F"/>
</linearGradient>
<linearGradient id="paint15_linear_7623_4771" x1="11.5625" y1="5.93719" x2="4.68762" y2="26.5621" gradientUnits="userSpaceOnUse">
<stop offset="0.00373261" stop-color="#4A3B43"/>
<stop offset="1" stop-color="#826875"/>
</linearGradient>
</defs>
</svg>
